<svg xmlns="http://www.w3.org/2000/svg" width="6.85in" height="6.09in" viewBox="0 0 493.16 438.26">
  <defs>
    <style>
      .cls-1, .cls-2, .cls-3, .cls-4 {
        fill: none;
        stroke-linecap: round;
        stroke-width: 8px;
      }

      .cls-1, .cls-2 {
        stroke: #000;
      }

      .cls-1, .cls-4 {
        stroke-linejoin: round;
      }

      .cls-2, .cls-3 {
        stroke-miterlimit: 10;
      }

      .cls-3, .cls-4 {
        stroke: #ff2400;
      }
    </style>
  </defs>
  <title>Azimut</title>
  <g id="Layer_3" data-name="Layer 3">
    <path class="cls-1" d="M60,314.34c-4.5-5.14-6.79-8.24-6.79-8.24l25.5-25a117.78,117.78,0,0,0,7.4,9.57"/>
    <path class="cls-1" d="M160.81,348.29c28.83,14.11,65.49,24.82,110.35,24.82,131.5,0,192-91,192-91l26,25.5s-80,104-219,104a269,269,0,0,1-127.43-32.13"/>
    <g>
      <line class="cls-2" x1="238.4" y1="59.17" x2="232.81" y2="69.28"/>
      <line class="cls-2" x1="196.23" y1="135.39" x2="111.19" y2="289.09"/>
      <line class="cls-3" x1="275.48" y1="81.33" x2="149.2" y2="309.57"/>
      <line class="cls-1" x1="132.16" y1="294.1" x2="212.66" y2="143.1"/>
      <line class="cls-1" x1="238.16" y1="96.1" x2="245.66" y2="81.1"/>
    </g>
    <g>
      <line class="cls-2" x1="29.66" y1="130.1" x2="29.66" y2="80.1"/>
      <line class="cls-1" x1="128.66" y1="123.1" x2="30.66" y2="123.1"/>
      <line class="cls-1" x1="128.66" y1="87.1" x2="30.66" y2="87.1"/>
      <line class="cls-1" x1="124.16" y1="108.1" x2="44.16" y2="108.1"/>
      <line class="cls-1" x1="163.16" y1="108.6" x2="200.66" y2="108.6"/>
      <rect class="cls-1" x="135.66" y="79.1" width="14.5" height="50.5" transform="translate(285.82 208.71) rotate(180)"/>
      <polyline class="cls-1" points="205.66 86.6 205.66 80.6 227.16 80.6 227.16 130.1 205.66 130.1 205.66 124.6"/>
      <line class="cls-2" x1="154.66" y1="124.1" x2="203.16" y2="124.1"/>
      <line class="cls-2" x1="154.66" y1="87.1" x2="203.16" y2="87.1"/>
    </g>
  </g>
  <g id="Layer_5" data-name="Layer 5">
    <circle cx="464.66" cy="324.1" r="3.5"/>
    <circle cx="432.66" cy="351.1" r="3.5"/>
    <circle cx="393.66" cy="375.1" r="3.5"/>
    <circle cx="354.66" cy="391.1" r="3.5"/>
    <circle cx="184.66" cy="391.1" r="3.5"/>
    <circle cx="145.66" cy="375.1" r="3.5"/>
    <circle cx="229.66" cy="402.1" r="3.5"/>
    <circle cx="276.66" cy="404.1" r="3.5"/>
    <circle cx="315.66" cy="401.1" r="3.5"/>
  </g>
  <g id="Layer_2" data-name="Layer 2">
    <g>
      <path class="cls-4" d="M126.75,307.15h0a41.28,41.28,0,0,1,11,57.75l-31.24,45.62L37.2,364.06l31.24-45.62A42.29,42.29,0,0,1,126.75,307.15Z"/>
      <path class="cls-3" d="M79.72,326.6a27.52,27.52,0,0,0,7.34,38.5,28.2,28.2,0,0,0,38.87-7.53,27.52,27.52,0,0,0-7.34-38.5A28.2,28.2,0,0,0,79.72,326.6Z"/>
      <path class="cls-3" d="M115.2,350.38a14.74,14.74,0,0,0-3.93-20.62"/>
      <path class="cls-3" d="M90.45,333.79a14.74,14.74,0,0,0,3.93,20.62"/>
      <line class="cls-3" x1="121.07" y1="405.08" x2="138.95" y2="417.07"/>
      <polygon class="cls-4" points="136.21 422.83 153.27 434.25 161.52 422.2 144.47 410.77 136.21 422.83"/>
      <polyline class="cls-4" points="33.16 354.15 4 334.61 12.26 322.56 41.41 342.1"/>
    </g>
    <g>
      <path class="cls-3" d="M246.59,65.8a36,36,0,1,1,22.72,10.14"/>
      <circle class="cls-3" cx="271.31" cy="40.92" r="14.5" transform="translate(121.84 271.01) rotate(-65.57)"/>
    </g>
    <line class="cls-3" x1="434.16" y1="293.6" x2="298.16" y2="77.6"/>
    <line class="cls-3" x1="423.66" y1="305.6" x2="377.66" y2="232.6"/>
    <line class="cls-3" x1="369.16" y1="218.6" x2="285.66" y2="85.6"/>
  </g>
  <g id="Layer_4" data-name="Layer 4">
    <path class="cls-4" d="M192.48,254.6C212,266.54,239,278.1,270.16,278.1c64.5,0,108-45,108-45"/>
    <path class="cls-4" d="M368.66,218.1s-28.5,43.5-97.5,43.5c-31.6,0-55.75-9.86-72.66-20.54"/>
  </g>
</svg>
