<svg id="appel" xmlns="http://www.w3.org/2000/svg" width="8in" height="8in" viewBox="0 0 576 576">
  <defs>
    <style>
      .cls-1 {
        fill: #fff;
      }
    </style>
  </defs>
  <title>appel</title>
  <path class="cls-1" d="M402.43,413.93,374.4,449c-11.43,14-32.48,22.69-50.09,23.4-7.18-.19-10.75-.43-17.81-1.15l-.08.11c-96.68-13.59-170.14-74.65-201.15-167.24l.08-.1c-.75-2.54-1.1-3.81-1.78-6.38-4.25-18.83,1.2-41.9,12.4-57.52l25.72-32.18c10.38-12.72,29.21-14.23,42.24-4.72l32.18,25.72c16.34,15,4.6,41.14-7.17,54.88l-29.72,35a415.87,415.87,0,0,0,105.6,84.39l29.36-39c10.78-13.75,31.17-29.44,48.73-17.92l35.09,28C409.44,384.25,411.93,401.79,402.43,413.93Z"/>
  <path class="cls-1" d="M430.69,339.53a7.19,7.19,0,0,1-8-6.33c-11.37-99.92-107-171.38-213.28-159.3a7.19,7.19,0,0,1-1.63-14.29c55.24-6.29,109.48,8.08,152.72,40.45S431.06,279.23,437,331.57A7.19,7.19,0,0,1,430.69,339.53Z"/>
  <path class="cls-1" d="M457.17,316.63a7.7,7.7,0,0,1-8.52-6.78c-12.17-107-114.6-183.47-228.33-170.53a7.7,7.7,0,1,1-1.74-15.3c59.14-6.73,117.2,8.65,163.49,43.3s75.5,84.75,81.88,140.79A7.7,7.7,0,0,1,457.17,316.63Z"/>
</svg>
