<svg id="arrivee" xmlns="http://www.w3.org/2000/svg" width="8in" height="8in" viewBox="0 0 576 576">
  <defs>
    <style>
      .cls-1 {
        opacity: 0;
      }

      .cls-2, .cls-4 {
        fill: #fff;
      }

      .cls-3, .cls-5 {
        fill: #6e1400;
      }

      .cls-4, .cls-5 {
        stroke: #6e1400;
        stroke-miterlimit: 10;
        stroke-width: 4px;
      }
    </style>
  </defs>
  <title>arrivee</title>
  <g class="cls-1">
    <path class="cls-2" d="M288,5.61C132,5.61,5.61,132,5.61,288S132,570.39,288,570.39,570.39,444,570.39,288,444,5.61,288,5.61Z"/>
  </g>
  <path class="cls-3" d="M288,5.61C132,5.61,5.61,132,5.61,288S132,570.39,288,570.39,570.39,444,570.39,288,444,5.61,288,5.61Zm0,537.93C146.87,543.53,32.47,429.13,32.47,288S146.87,32.47,288,32.47,543.53,146.87,543.53,288,429.13,543.53,288,543.53Z"/>
  <g>
    <g>
      <path class="cls-4" d="M231.29,252.07c-19.47,6.6-39.73-2.55-57.28-10.27l-19.52-38.06c16.56,7.29,35.67,15.91,54,9.69Z"/>
      <path class="cls-5" d="M258,220.42C251.4,235.48,246,244,231.49,252l-22.78-38.64c13.84-5.24,19.46-17.14,25-29.78Z"/>
      <path class="cls-4" d="M269.15,167.69c-2.76,17.83-5.78,35.22-11.09,52.5l-24.29-36.84c5.38-16.09,7.87-32.82,10.46-49.52Z"/>
      <path class="cls-5" d="M280.28,114.91c-5.3,17.27-8.32,34.65-11.09,52.5l-24.92-33.85c2.57-16.59,4.8-33.62,10.46-49.52Z"/>
      <path class="cls-4" d="M306.85,83.1c-14.48,8-19.91,16.52-26.48,31.57L254.81,83.81c5.52-12.65,11.14-24.54,25-29.78Z"/>
      <path class="cls-5" d="M364.33,93.3C347.42,85.86,326,76,307,83L280,54c17.85-6.65,38.08,2.67,54,9.69Z"/>
      <path class="cls-5" d="M254.17,290.91c-20.58,7-42-2.7-60.55-10.86L174.11,242c17.56,7.73,37.82,16.88,57.3,10.28Z"/>
      <path class="cls-4" d="M282.38,257.46c-6,14.35-12.74,27.17-28,33.37l-22.78-38.64c14.48-8,19.92-16.52,26.49-31.58Z"/>
      <path class="cls-5" d="M294.19,201.73c-2.87,18.58-5.36,37.69-11.72,55.49l-24.29-36.84c5.3-17.28,8.32-34.68,11.09-52.51Z"/>
      <path class="cls-4" d="M306,145.94c-6.21,17.91-8.84,36.83-11.72,55.49l-24.92-33.85c2.77-17.85,5.79-35.23,11.09-52.51Z"/>
      <path class="cls-5" d="M334,112.32c-15.14,5-22.31,19.85-28,33.37l-25.55-30.86c6.57-15.06,12-23.56,26.49-31.58Z"/>
      <path class="cls-4" d="M394.8,123.1c-17.87-7.86-40.55-18.31-60.55-10.86L307.19,83.18c18.93-7.05,40.39,2.83,57.3,10.28Z"/>
      <path class="cls-4" d="M277.06,329.76c-21.55,7.4-44.45-2.79-63.81-11.45l-19.52-38.06c18.56,8.17,40,17.84,60.56,10.86Z"/>
      <path class="cls-5" d="M306.79,294.51c-6.35,15.12-13.43,28.63-29.5,35.17L254.51,291c15.26-6.21,22-19,28-33.38Z"/>
      <path class="cls-4" d="M319.23,235.77c-3,19.58-5.65,39.72-12.35,58.48L282.6,257.41c6.36-17.8,8.85-36.92,11.72-55.5Z"/>
      <path class="cls-5" d="M331.63,177c-6.55,18.88-9.32,38.81-12.35,58.48L294.36,201.6c2.88-18.66,5.51-37.59,11.72-55.5Z"/>
      <path class="cls-4" d="M361.23,141.53c-16,5.27-23.51,20.92-29.5,35.17l-25.55-30.86c5.68-13.53,12.86-28.38,28-33.38Z"/>
      <path class="cls-5" d="M425.26,152.9C405.9,144.25,383,134,361.45,141.45l-27.06-29.06c20-7.46,42.69,3,60.56,10.86Z"/>
      <path class="cls-5" d="M299.94,368.61c-22.65,7.78-46.72-2.94-67.08-12l-19.52-38.06c19.37,8.65,42.27,18.86,63.83,11.45Z"/>
      <path class="cls-4" d="M331.19,331.55c-6.68,15.89-14.12,30.1-31,37L277.4,329.88c16.08-6.54,23.16-20.06,29.51-35.18Z"/>
      <path class="cls-5" d="M344.27,269.8c-3.22,20.86-6.66,41.31-13,61.47L307,294.44c6.7-18.76,9.33-38.91,12.35-58.49Z"/>
      <path class="cls-4" d="M357.31,208c-6.33,20.17-9.76,40.62-13,61.47l-24.92-33.85c3-19.67,5.81-39.61,12.35-58.49Z"/>
      <path class="cls-5" d="M388.42,170.75c-16.77,5.54-24.72,22-31,37l-25.55-30.86c6-14.26,13.56-29.91,29.51-35.18Z"/>
      <path class="cls-4" d="M455.73,182.7c-20.35-9.09-44.42-19.81-67.08-12L361.59,141.6c21.56-7.41,44.46,2.79,63.83,11.45Z"/>
    </g>
    <path class="cls-3" d="M303,514.72,143.75,201.19c5.14-4.46,7.6-9.7,5.67-13.15-2.53-4.5-11.61-4.21-20.28.66s-13.65,12.46-11.13,17c1.79,3.18,6.84,4,12.71,2.43L289.86,521.39Z"/>
  </g>
</svg>
