<svg id="borne" xmlns="http://www.w3.org/2000/svg" width="8in" height="8in" viewBox="0 0 576 576">
  <defs>
    <style>
      .cls-1 {
        fill: #fff;
      }
    </style>
  </defs>
  <title>borne</title>
  <g>
    <path class="cls-1" d="M285.37,284.23l-11.24,8.17a4.47,4.47,0,0,0-1.63,5l4.29,13.22a4.47,4.47,0,0,0,4.25,3.09h13.9a4.47,4.47,0,0,0,4.25-3.09l4.29-13.22a4.47,4.47,0,0,0-1.63-5l-11.24-8.17A4.47,4.47,0,0,0,285.37,284.23Z"/>
    <g>
      <rect class="cls-1" x="274" y="88.33" width="28" height="14.67" rx="2.15" ry="2.15"/>
      <path class="cls-1" d="M317,120.33h0a10,10,0,0,0-10-10H269a10,10,0,0,0-10,10h0a35,35,0,0,0-35,35v26.33H352V155.33a35,35,0,0,0-35-35Z"/>
      <path class="cls-1" d="M382.67,199h-1.33v-1.83a6.83,6.83,0,0,0-6.83-6.83h-173a6.83,6.83,0,0,0-6.83,6.83V199h-1.33a6.33,6.33,0,0,0,0,12.67h1.33v1.17a6.83,6.83,0,0,0,6.83,6.83h173a6.83,6.83,0,0,0,6.83-6.83v-1.17h1.33a6.33,6.33,0,0,0,0-12.67Z"/>
      <g>
        <path class="cls-1" d="M196.76,333.35l10.24,3v-74l-10.24,3A8,8,0,0,0,191,273v52.67A8,8,0,0,0,196.76,333.35Z"/>
        <rect class="cls-1" x="168.33" y="284.33" width="14" height="27.33" rx="2.15" ry="2.15"/>
      </g>
      <path class="cls-1" d="M382.38,479H378.8l-2.72-16.88a6.09,6.09,0,0,0-6-5.12H205.93a6.09,6.09,0,0,0-6,5.12L197.2,479H193a5.29,5.29,0,0,0-5.29,5.29v3.42A5.29,5.29,0,0,0,193,493H382.38a5.29,5.29,0,0,0,5.29-5.29v-3.42A5.29,5.29,0,0,0,382.38,479Z"/>
      <g>
        <path class="cls-1" d="M379.89,333.35l-9.89,3v-74l9.89,3a8,8,0,0,1,5.56,7.68v52.67A8,8,0,0,1,379.89,333.35Z"/>
        <rect class="cls-1" x="393.82" y="284.33" width="13.52" height="27.33" rx="2.15" ry="2.15" transform="translate(801.15 596) rotate(180)"/>
      </g>
      <path class="cls-1" d="M353,255h-1.33V227h-128v28H223a7.33,7.33,0,0,0-7.33,7.33v72a7.33,7.33,0,0,0,7.33,7.33h.67v108h128v-108H353a7.33,7.33,0,0,0,7.33-7.33v-72A7.33,7.33,0,0,0,353,255Zm-64.75,96a52.25,52.25,0,1,1,52.25-52.25A52.25,52.25,0,0,1,288.25,351Z"/>
    </g>
    <path class="cls-1" d="M288,261.5A37.5,37.5,0,1,0,325.5,299,37.5,37.5,0,0,0,288,261.5Zm0,60.5a23,23,0,1,1,23-23A23,23,0,0,1,288,322Z"/>
  </g>
</svg>
