<svg id="cadrer_route" xmlns="http://www.w3.org/2000/svg" width="8in" height="8in" viewBox="0 0 576 576">
  <defs>
    <style>
      .cls-1 {
        fill: #fff;
      }

      .cls-2 {
        fill: none;
        stroke: #fff;
        stroke-linecap: round;
        stroke-miterlimit: 10;
        stroke-width: 15px;
      }
    </style>
  </defs>
  <title>cadrer_route</title>
  <g>
    <path class="cls-1" d="M119.17,188.83v-64.5a5.17,5.17,0,0,1,5.17-5.17h64.5a12.5,12.5,0,0,0,12.5-12.5h0a12.5,12.5,0,0,0-12.5-12.5H110.5A16.33,16.33,0,0,0,94.17,110.5v78.33a12.5,12.5,0,0,0,12.5,12.5h0A12.5,12.5,0,0,0,119.17,188.83Z"/>
    <path class="cls-1" d="M387.17,119.17h64.5a5.17,5.17,0,0,1,5.17,5.17v64.5a12.5,12.5,0,0,0,12.5,12.5h0a12.5,12.5,0,0,0,12.5-12.5V110.5A16.33,16.33,0,0,0,465.5,94.17H387.17a12.5,12.5,0,0,0-12.5,12.5h0A12.5,12.5,0,0,0,387.17,119.17Z"/>
    <path class="cls-1" d="M456.83,387.17v64.5a5.17,5.17,0,0,1-5.17,5.17h-64.5a12.5,12.5,0,0,0-12.5,12.5h0a12.5,12.5,0,0,0,12.5,12.5H465.5a16.33,16.33,0,0,0,16.33-16.33V387.17a12.5,12.5,0,0,0-12.5-12.5h0A12.5,12.5,0,0,0,456.83,387.17Z"/>
    <path class="cls-1" d="M188.83,456.83h-64.5a5.17,5.17,0,0,1-5.17-5.17v-64.5a12.5,12.5,0,0,0-12.5-12.5h0a12.5,12.5,0,0,0-12.5,12.5V465.5a16.33,16.33,0,0,0,16.33,16.33h78.33a12.5,12.5,0,0,0,12.5-12.5h0A12.5,12.5,0,0,0,188.83,456.83Z"/>
  </g>
  <polyline class="cls-2" points="431.33 151 383.33 171 361.33 200.33 362.67 246.33 330.67 315 282 329 212.67 323.67 189.33 370.33 144.67 425"/>
</svg>
