<svg id="camion" xmlns="http://www.w3.org/2000/svg" width="8in" height="8in" viewBox="0 0 576 576">
  <defs>
    <style>
      .cls-1 {
        fill: #fff;
      }
    </style>
  </defs>
  <title>camion</title>
  <g>
    <path class="cls-1" d="M136.08,182.84c-4.77,0-8.63,6.87-8.63,15.35h17.27C144.72,189.71,140.85,182.84,136.08,182.84Z"/>
    <path class="cls-1" d="M491.54,345.63V274.15H401.36V259.6h76.11l-.64-14.71H260l-1.28,29.26h-7l-12.15-73.07h-126L85.42,267.6v75.47H71.67v16.31H117.6c-.08-1.06-.13-2.12-.13-3.2a43.17,43.17,0,1,1,86.34,0c0,1.08-.05,2.14-.13,3.2h87c-.08-1.06-.13-2.12-.13-3.2a43.17,43.17,0,1,1,86.34,0c0,1.08-.05,2.14-.13,3.2h8.22c-.08-1.06-.13-2.12-.13-3.2a43.17,43.17,0,1,1,86.34,0c0,1.08-.05,2.14-.13,3.2h32.67l.64-13.75ZM159,267.6H103.32l22.38-53.72H159Zm67.15,0H173V213.87h53.08Z"/>
    <path class="cls-1" d="M479.39,197.11v-7.67h-220v7.67h19.19v33.25H259.38V239h220v-8.67H467.11V197.11ZM313.27,230.36H287V197.08h26.27Zm35,0H322V197.08h26.27Zm36,0H358V197.08h26.27Zm37,0H395V197.08h26.27Zm36,0H431V197.08h26.27Z"/>
  </g>
  <path class="cls-1" d="M160.22,320.25a36.46,36.46,0,1,0,36.46,36.46A36.46,36.46,0,0,0,160.22,320.25Zm0,64.23A27.78,27.78,0,1,1,188,356.7,27.78,27.78,0,0,1,160.22,384.48Z"/>
  <path class="cls-1" d="M334.22,320.25a36.46,36.46,0,1,0,36.46,36.46A36.46,36.46,0,0,0,334.22,320.25Zm0,64.23A27.78,27.78,0,1,1,362,356.7,27.78,27.78,0,0,1,334.22,384.48Z"/>
  <path class="cls-1" d="M428.22,320.25a36.46,36.46,0,1,0,36.46,36.46A36.46,36.46,0,0,0,428.22,320.25Zm0,64.23A27.78,27.78,0,1,1,456,356.7,27.78,27.78,0,0,1,428.22,384.48Z"/>
</svg>
