<svg id="cible" xmlns="http://www.w3.org/2000/svg" width="8in" height="8in" viewBox="0 0 576 576">
  <defs>
    <style>
      .cls-1 {
        fill: #fff;
      }
    </style>
  </defs>
  <title>cible</title>
  <g>
    <path class="cls-1" d="M213,108A180,180,0,1,0,393,288,180,180,0,0,0,213,108Zm0,337.47A157.47,157.47,0,1,1,370.47,288,157.47,157.47,0,0,1,213,445.47Z"/>
    <path class="cls-1" d="M208.82,158.12a95.09,95.09,0,0,0-95.09,95.09c0,52.52,95.09,173,95.09,173s95.09-120.51,95.09-173A95.09,95.09,0,0,0,208.82,158.12Zm0,129.38a34.29,34.29,0,1,1,34.29-34.29A34.29,34.29,0,0,1,208.82,287.5Z"/>
  </g>
  <g>
    <path class="cls-1" d="M512.83,348h-79a2.5,2.5,0,0,1-2.5-2.5v-79a2.5,2.5,0,0,1,2.5-2.5h79a2.5,2.5,0,0,1,2.5,2.5v79A2.5,2.5,0,0,1,512.83,348Zm-69-10h59a2.5,2.5,0,0,0,2.5-2.5v-59a2.5,2.5,0,0,0-2.5-2.5h-59a2.5,2.5,0,0,0-2.5,2.5v59A2.5,2.5,0,0,0,443.83,338Z"/>
    <path class="cls-1" d="M492,247.4l9-4.63A35.39,35.39,0,0,0,472.67,228c-19.21,0-35.45,16.64-35.45,36.33h10c0-14.27,11.65-26.33,25.45-26.33A25.16,25.16,0,0,1,492,247.4Z"/>
  </g>
</svg>
