<svg id="cible-barre-camion" xmlns="http://www.w3.org/2000/svg" width="8in" height="8in" viewBox="0 0 576 576">
  <defs>
    <style>
      .cls-1 {
        fill: orange;
      }

      .cls-2 {
        fill: #fff;
      }
    </style>
  </defs>
  <title>cible-barre-camion</title>
  <g>
    <path class="cls-1" d="M213,108A180,180,0,1,0,393,288,180,180,0,0,0,213,108Zm0,337.47A157.47,157.47,0,1,1,370.47,288,157.47,157.47,0,0,1,213,445.47Z"/>
    <path class="cls-1" d="M208.82,158.12a95.09,95.09,0,0,0-95.09,95.09c0,52.52,95.09,173,95.09,173s95.09-120.51,95.09-173A95.09,95.09,0,0,0,208.82,158.12Zm0,129.38a34.29,34.29,0,1,1,34.29-34.29A34.29,34.29,0,0,1,208.82,287.5Z"/>
  </g>
  <g>
    <path class="cls-2" d="M508.11,264.33h-10c0-14.27-11.65-26.33-25.45-26.33s-25.45,12.06-25.45,26.33h-10c0-19.69,16.23-36.33,35.45-36.33S508.11,244.64,508.11,264.33Z"/>
    <path class="cls-2" d="M512.83,348h-79a2.5,2.5,0,0,1-2.5-2.5v-79a2.5,2.5,0,0,1,2.5-2.5h79a2.5,2.5,0,0,1,2.5,2.5v79A2.5,2.5,0,0,1,512.83,348Zm-69-10h59a2.5,2.5,0,0,0,2.5-2.5v-59a2.5,2.5,0,0,0-2.5-2.5h-59a2.5,2.5,0,0,0-2.5,2.5v59A2.5,2.5,0,0,0,443.83,338Z"/>
  </g>
</svg>
