<svg id="couches_outlined" data-name="couches outlined" xmlns="http://www.w3.org/2000/svg" width="8in" height="8in" viewBox="0 0 576 576">
  <defs>
    <style>
      .cls-1 {
        fill: #fff;
      }
    </style>
  </defs>
  <title>couche</title>
  <g>
    <path class="cls-1" d="M288,326.35a26.94,26.94,0,0,1-13.52-3.62L78.15,208.89a27,27,0,0,1,0-46.63L274.48,48.43a27,27,0,0,1,27,0h0L497.85,162.26a27,27,0,0,1,0,46.63L301.52,322.72A27,27,0,0,1,288,326.35Zm0-261.55a7,7,0,0,0-3.49.94L88.18,179.56a7,7,0,0,0,0,12L284.51,305.42a7,7,0,0,0,7,0L487.82,191.59a7,7,0,0,0,0-12L291.49,65.73h0A7,7,0,0,0,288,64.79Z"/>
    <path class="cls-1" d="M288,531.2a25.94,25.94,0,0,1-13-3.49l-198.33-115a25.95,25.95,0,0,1,0-44.9l44.5-25.8,161,93.36a11.61,11.61,0,0,0,11.65,0l161-93.36,44.5,25.8a25.95,25.95,0,0,1,0,44.9L301,527.71A25.94,25.94,0,0,1,288,531.2ZM121.15,365.14l-34.47,20a5.95,5.95,0,0,0,0,10.29L285,510.41a6,6,0,0,0,6,0l198.33-115a5.95,5.95,0,0,0,0-10.29l-34.47-20L298.5,455.79a20.93,20.93,0,0,1-21,0Z"/>
    <path class="cls-1" d="M288,429.06a24.6,24.6,0,0,1-12.34-3.31h0l-201-116.54a24.61,24.61,0,0,1,0-42.58l46.5-27L288,336.41l166.85-96.74,46.5,27a24.61,24.61,0,0,1,0,42.58l-201,116.54A24.62,24.62,0,0,1,288,429.06Zm-2.31-20.61a4.63,4.63,0,0,0,4.63,0l201-116.54a4.61,4.61,0,0,0,0-8l-36.47-21.14L298.5,353.44a20.93,20.93,0,0,1-21,0L121.15,262.79,84.69,283.93a4.61,4.61,0,0,0,0,8l201,116.54Z"/>
  </g>
</svg>
