<svg id="depart" xmlns="http://www.w3.org/2000/svg" width="8in" height="8in" viewBox="0 0 576 576">
  <defs>
    <style>
      .cls-1 {
        opacity: 0;
      }

      .cls-2 {
        fill: #fff;
      }

      .cls-3 {
        fill: #6e1400;
      }
    </style>
  </defs>
  <title>depart</title>
  <g class="cls-1">
    <path class="cls-2" d="M288,5.61C132,5.61,5.61,132,5.61,288S132,570.39,288,570.39,570.39,444,570.39,288,444,5.61,288,5.61Z"/>
  </g>
  <g>
    <path class="cls-3" d="M288,5.61C132,5.61,5.61,132,5.61,288S132,570.39,288,570.39,570.39,444,570.39,288,444,5.61,288,5.61Zm0,509.22C162.73,514.83,61.17,413.27,61.17,288S162.73,61.17,288,61.17,514.83,162.73,514.83,288,413.27,514.83,288,514.83Z"/>
    <circle class="cls-3" cx="288" cy="288" r="48.7"/>
  </g>
</svg>
