<svg id="avant_fourche" xmlns="http://www.w3.org/2000/svg" width="8in" height="8in" viewBox="0 0 576 576">
  <defs>
    <style>
      .cls-1 {
        fill: #fff;
      }
    </style>
  </defs>
  <title>avant_fourche</title>
  <path class="cls-1" d="M369.6,142.57,383.87,191c-32,19.14-59.47,44.06-80.19,72.83A229.88,229.88,0,0,0,287.83,289,229.88,229.88,0,0,0,272,263.78C251.26,235,223.75,210.09,191.79,191l14.27-48.38-145.4,35.1L163.75,286l13.34-45.23C229.6,276.38,262.33,330,262.33,383c0,38.28.3,80.2.5,103.66-.09,11-.16,17.87-.17,18.08H263v.51l24.83-.26,24.83.26v-.51H313c0-.21-.07-7-.17-18.08.2-23.46.5-65.38.5-103.66,0-53,32.74-106.62,85.25-142.18L411.92,286,515,177.67Z"/>
</svg>
