<svg id="mode_outlined" data-name="mode outlined" xmlns="http://www.w3.org/2000/svg" width="8in" height="8in" viewBox="0 0 576 576">
  <defs>
    <style>
      .cls-1 {
        fill: #fff;
      }
    </style>
  </defs>
  <title>mode</title>
  <g>
    <path class="cls-1" d="M146.39,266a15.28,15.28,0,0,0,14.27-15.41V152.67H416v39.62H395a5.15,5.15,0,0,0-4.46,7.72l36.16,62.62a4.92,4.92,0,0,0,8.52,0L471.42,200a5.15,5.15,0,0,0-4.46-7.72H446V137.67a15,15,0,0,0-15-15H145.67a15,15,0,0,0-15,15V251A15,15,0,0,0,146.39,266Z"/>
    <path class="cls-1" d="M430.27,301.68A15.28,15.28,0,0,0,416,317.09V415H160.67V375.38h21a5.15,5.15,0,0,0,4.46-7.72L149.92,305a4.92,4.92,0,0,0-8.52,0l-36.16,62.62a5.15,5.15,0,0,0,4.46,7.72h21V430a15,15,0,0,0,15,15H431a15,15,0,0,0,15-15V316.67A15,15,0,0,0,430.27,301.68Z"/>
  </g>
</svg>
