<svg id="options" xmlns="http://www.w3.org/2000/svg" width="8in" height="8in" viewBox="0 0 576 576">
  <defs>
    <style>
      .cls-1 {
        fill: #fff;
      }
    </style>
  </defs>
  <title>options</title>
  <path class="cls-1" d="M475.82,288q0-9.6-.95-19l40.92-22.73a229.83,229.83,0,0,0-9.66-36.11l-46.78.77a187.61,187.61,0,0,0-19-32.82L464.41,138A232.93,232.93,0,0,0,438,111.59l-40.11,24.05a187.6,187.6,0,0,0-32.82-19l.77-46.78a229.81,229.81,0,0,0-36.11-9.66L307,101.13q-9.35-.94-19-.95t-19,.95L246.32,60.21a229.81,229.81,0,0,0-36.11,9.66l.77,46.78a187.6,187.6,0,0,0-32.82,19L138,111.59A232.93,232.93,0,0,0,111.59,138l24.05,40.11a187.61,187.61,0,0,0-19,32.82l-46.78-.77a229.83,229.83,0,0,0-9.66,36.11L101.13,269q-.94,9.35-.95,19t.95,19L60.21,329.68a229.83,229.83,0,0,0,9.66,36.11l46.78-.77a187.61,187.61,0,0,0,19,32.82L111.59,438A232.94,232.94,0,0,0,138,464.41l40.11-24.05a187.6,187.6,0,0,0,32.82,19l-.77,46.78a229.81,229.81,0,0,0,36.11,9.66L269,474.87q9.35.94,19,.95t19-.95l22.73,40.92a229.81,229.81,0,0,0,36.11-9.66L365,459.35a187.6,187.6,0,0,0,32.82-19L438,464.41A232.94,232.94,0,0,0,464.41,438l-24.05-40.11a187.61,187.61,0,0,0,19-32.82l46.78.77a229.83,229.83,0,0,0,9.66-36.11L474.87,307Q475.81,297.6,475.82,288ZM288,423.1A135.1,135.1,0,1,1,423.1,288,135.1,135.1,0,0,1,288,423.1Z"/>
</svg>
