<svg id="satellite" xmlns="http://www.w3.org/2000/svg" width="8in" height="8in" viewBox="0 0 576 576">
  <defs>
    <style>
      .cls-1 {
        fill: #fff;
      }
    </style>
  </defs>
  <title>satellite</title>
  <path class="cls-1" d="M240,178.79a4.29,4.29,0,1,1-.65,8.55c-.23,0-24.19-1.58-39.17,13.4s-14.06,39.69-14,39.94a4.29,4.29,0,0,1-8.56.42c-.06-1.16-1.21-28.66,16.55-46.42S238.87,178.71,240,178.79Z"/>
  <path class="cls-1" d="M176,176.49c17.81-17.81,44.74-16,45.88-15.88a4.29,4.29,0,1,1-.65,8.55c-.23,0-24.19-1.58-39.17,13.4S168,222.25,168,222.49a4.29,4.29,0,0,1-8.56.42C159.35,221.75,158.19,194.25,176,176.49Z"/>
  <path class="cls-1" d="M353.94,243.09l-1.55-1.55-27,27,27.64,27.64a40.76,40.76,0,0,1,0,57.47h0a40.76,40.76,0,0,1-57.47,0L268,326l-26.42,26.42,1.55,1.55a22.25,22.25,0,0,1,0,31.47l-85,85a22.25,22.25,0,0,1-31.47,0L116.26,460a22.25,22.25,0,0,1,0-31.47l85-85a22.25,22.25,0,0,1,31.47,0l1.73,1.73,26.42-26.42-31.47-31.47L244.73,272A40.74,40.74,0,0,1,204,262h0a12.31,12.31,0,0,1,0-17.41L244,204.5a12.31,12.31,0,0,1,17.41,0h0a40.74,40.74,0,0,1,10,40.78l15.37-15.37,31.47,31.47,27-27-1.73-1.73a22.25,22.25,0,0,1,0-31.47l85-85a22.25,22.25,0,0,1,31.47,0l10.39,10.39a22.25,22.25,0,0,1,0,31.47l-85,85A22.25,22.25,0,0,1,353.94,243.09Z"/>
</svg>
