<svg id="trafic" xmlns="http://www.w3.org/2000/svg" width="8in" height="8in" viewBox="0 0 576 576">
  <defs>
    <style>
      .cls-1 {
        fill: #fff;
      }
    </style>
  </defs>
  <title>trafic</title>
  <g>
    <path class="cls-1" d="M447.92,324.25c-7.38-2.84-18.73-1.14-18.73-1.14s-15-47.34-22.71-53.36c-21-16.46-72.67-13.62-81.75-13.62s-61.31-1.7-87.43,13.62c-7.74,4.54-22.14,54.5-22.14,54.5s-11.92-4-18.73-.57-15.33,24.41-10.22,29,18.17,2.84,18.17,2.84-7.38,13.06-7.38,21v80.61c0,5.11,4.54,10.79,10.22,10.79H235.6c7.38,0,10.79-2.84,10.79-10.79V442.9l151-1.14s.57,9.65.57,15.9a10.44,10.44,0,0,0,10.79,10.79l26.68.27c7.95,0,11.35-2.54,11.35-10.49s.57-72.1,0-79.48S440.54,356,440.54,356s10.22,2.84,17.6-1.7S455.3,327.09,447.92,324.25ZM275.21,398.62c-.64,10.2-14.19,7.38-27.82,7.38s-25-2.84-25-9.65-2.27-23.28,9.65-23.28,29,10.79,33.49,13.62S275.78,389.54,275.21,398.62Zm-42-64.72S241.71,303.81,248,293s12.49-18.73,78.34-18.73,69.26,13.06,73.23,21,15.33,37.47,15.33,37.47-30.66,11.35-92,11.35S233.2,333.9,233.2,333.9ZM425,396.35c0,6.81-11.62,9.65-25.56,9.65s-27.82,2.82-28.47-7.38c-.58-9.08,5.23-9.08,9.88-11.92s22.08-13.62,34.28-13.62S425,389.54,425,396.35Z"/>
    <path class="cls-1" d="M247,108.37c6.24-10.79,12.49-18.73,78.34-18.73s69.26,13.06,73.23,21,15.33,37.47,15.33,37.47-30.66,11.35-92,11.35c-2.26,0-4.46,0-6.63,0,5.48,14.43,9.47,29.16,9.47,29.16s16.46,2.27,19.87,6.24,17.6,27.82,15.9,35.2-2.27,9.65-2.27,9.65,48.25,5.68,57.91,15.33,17,28.38,17,28.38l.92.67h1.35c7.95,0,11.35-2.54,11.35-10.49s.57-72.1,0-79.48-6.24-22.71-6.24-22.71,10.22,2.84,17.6-1.7-2.84-27.25-10.22-30.09-18.73-1.14-18.73-1.14-15-47.34-22.71-53.36c-21-16.46-72.67-13.62-81.75-13.62s-61.31-1.7-87.43,13.62c-4.55,2.67-11.41,21.07-16.29,35.76,6.55.27,13.3.67,20,1.19A97.3,97.3,0,0,1,247,108.37ZM425,211.69c0,6.81-11.62,9.65-25.56,9.65s-27.82,2.82-28.47-7.38c-.58-9.08,5.23-9.08,9.88-11.92s22.08-13.62,34.28-13.62S425,204.88,425,211.69Z"/>
    <path class="cls-1" d="M203.24,306.09s9.65-36.9,21.57-48.25,53.36-19.3,99.35-19.3q6.36,0,12.56.21a16.19,16.19,0,0,0,4.07-1.76c7.38-4.54-2.84-27.25-10.22-30.09s-18.73-1.14-18.73-1.14-15-47.34-22.71-53.36c-21-16.46-72.67-13.62-81.75-13.62s-61.31-1.7-87.43,13.62c-7.74,4.54-22.14,54.5-22.14,54.5s-11.92-4-18.73-.57-15.33,24.41-10.22,29S87,238.12,87,238.12s-7.38,13.06-7.38,21v80.61c0,5.11,4.54,10.79,10.22,10.79h28.38c7.38,0,10.79-2.84,10.79-10.79V325.55l44.83-.34a41.22,41.22,0,0,1,11.21-14C195.3,303.25,203.24,306.09,203.24,306.09Zm-45.39-24.82c-.64,10.2-14.19,7.38-27.82,7.38s-25-2.84-25-9.65-2.27-23.28,9.65-23.28,29,10.79,33.49,13.62S158.42,272.18,157.85,281.27Zm-42-64.72s8.52-30.09,14.76-40.87,12.49-18.73,78.34-18.73,69.26,13.06,73.23,21,15.33,37.47,15.33,37.47-30.66,11.35-92,11.35S115.84,216.55,115.84,216.55Z"/>
  </g>
</svg>
