<svg id="droite_u_turn" xmlns="http://www.w3.org/2000/svg" width="8in" height="8in" viewBox="0 0 576 576">
  <defs>
    <style>
      .cls-1 {
        fill: #fff;
      }
    </style>
  </defs>
  <title>u_turn_droite</title>
  <path class="cls-1" d="M453.33,373.47v-140c.23-7.6,0-51.09-33.54-86.77C390.67,115.7,346.22,100,287.67,100c-86.86,0-129.73,35.16-150.39,64.65C114.63,197,113.4,229,113.34,232.54V503.67h50V233.37a84.05,84.05,0,0,1,14.89-40c20.15-28.76,57-43.35,109.44-43.35,43.82,0,75.85,10.23,95.2,30.4,20.87,21.76,20.58,48.63,20.51,51.15l0,.44V373.47h-49.8L428.33,503l74.79-129.53Z"/>
</svg>
