<svg id="gauche_u_turn" xmlns="http://www.w3.org/2000/svg" width="8in" height="8in" viewBox="0 0 576 576">
  <defs>
    <style>
      .cls-1 {
        fill: #fff;
      }
    </style>
  </defs>
  <title>u_turn_gauche</title>
  <path class="cls-1" d="M113.38,373.47v-140c-.24-7.6,0-51.09,33.71-86.77,29.27-31,74-46.68,132.8-46.68,87.31,0,130.39,35.16,151.16,64.65,22.76,32.32,24,64.34,24.06,67.88V503.67H404.87V233.37a83.77,83.77,0,0,0-15-40C369.65,164.58,332.64,150,279.9,150c-44,0-76.24,10.23-95.69,30.4-21,21.76-20.69,48.63-20.61,51.15l0,.44V373.47h50.05L138.51,503,63.33,373.47Z"/>
</svg>
